<svg width="425" height="426" viewBox="0 0 425 426" fill="none" xmlns="http://www.w3.org/2000/svg">
<path d="M85.1662 137.843L67.7108 333.13L108.936 392.072L382.028 348.796L358.258 94.5668L317.033 35.6248L85.1662 137.823V137.843ZM196.273 300.995L205.282 241.268C194.644 235.336 187.204 224.879 185.997 212.028C183.886 189.405 201.864 167.928 226.177 164.087C250.489 160.225 271.906 175.449 274.018 198.092C275.225 210.943 269.936 223.411 260.685 232.5L280.151 286.877L196.253 301.015L196.273 300.995Z" fill="#EDFA9F" stroke="#222938" stroke-width="0.837618" stroke-miterlimit="10"/>
<path d="M164.198 182.507L205.282 241.248L201.964 263.268L150.624 271.413L164.017 182.547C164.017 182.547 164.137 182.446 164.178 182.507H164.198Z" fill="#EDFA9F" stroke="#222938" stroke-width="0.837618" stroke-miterlimit="10"/>
<path d="M43.9409 78.9012L67.7108 333.13L340.803 289.854L317.033 35.6248L43.9409 78.9012ZM199.792 263.61L150.644 271.393L164.077 182.346C164.077 182.346 164.077 182.306 164.057 182.286C153.439 176.354 146.019 165.896 144.812 153.066C142.7 130.443 160.679 108.965 184.992 105.124C209.304 101.263 230.721 116.487 232.833 139.13C234.039 151.98 228.751 164.449 219.5 173.538L248.961 255.828L199.813 263.61H199.792Z" fill="white" stroke="#222938" stroke-width="0.837618" stroke-miterlimit="10"/>
</svg>
