<svg width="425" height="426" viewBox="0 0 425 426" fill="none" xmlns="http://www.w3.org/2000/svg">
<path d="M232.097 177.862C193.627 184.056 162.638 217.921 162.919 253.515C163.181 289.09 194.592 312.92 233.082 306.726C271.553 300.532 302.522 266.667 302.26 231.073C301.979 195.498 270.567 171.668 232.097 177.862Z" stroke="#222938" stroke-width="0.837618" stroke-miterlimit="10"/>
<path d="M316.036 93.3404L147.032 120.549L63.5562 269.503L149.124 391.248L318.127 364.039L401.583 215.086L316.036 93.3203V93.3404ZM302.26 231.073C302.522 266.667 271.553 300.532 233.082 306.726C194.592 312.92 163.18 289.09 162.919 253.515C162.637 217.921 193.627 184.056 232.097 177.862C270.567 171.668 301.979 195.499 302.26 231.073Z" fill="#EDFA9F" stroke="#222938" stroke-width="0.837618" stroke-miterlimit="10"/>
<path d="M191.455 120.166C152.985 126.36 121.996 160.225 122.277 195.819C122.539 231.393 153.95 255.224 192.441 249.03C230.911 242.836 261.88 208.971 261.618 173.376C261.337 137.802 229.925 113.972 191.455 120.166Z" stroke="#222938" stroke-width="0.837618" stroke-miterlimit="10"/>
<path d="M275.394 35.6248L106.391 62.8334L22.9145 211.807L108.482 333.552L277.485 306.344L360.941 157.39L275.394 35.6248ZM261.619 173.357C261.88 208.952 230.911 242.817 192.441 249.011C153.95 255.204 122.539 231.374 122.277 195.8C121.996 160.205 152.985 126.34 191.455 120.147C229.926 113.953 261.337 137.783 261.619 173.357Z" fill="white" stroke="#222938" stroke-width="0.837618" stroke-miterlimit="10"/>
<path d="M261.618 173.357C261.88 208.952 230.911 242.817 192.441 249.01C153.95 255.204 122.539 231.374 122.277 195.8C121.996 160.205 152.985 126.34 191.455 120.146C229.925 113.953 261.337 137.783 261.618 173.357Z" stroke="#222938" stroke-width="0.837618" stroke-miterlimit="10"/>
</svg>
